<?xml version="1.0" standalone="no"?>
<svg viewBox="0 0 200 200" xmlns="http://www.w3.org/2000/svg">
  <path fill="#FF0066" d="M36.1,-66.7C45.9,-57,52.3,-45.4,60.5,-34C68.7,-22.6,78.8,-11.3,81.9,1.8C85,14.8,81,29.7,71.5,38.8C62,48,46.9,51.5,34,59.6C21.2,67.8,10.6,80.6,-2,84.1C-14.7,87.6,-29.4,81.9,-41.7,73.5C-54.1,65.1,-64.1,54,-68.9,41.3C-73.6,28.6,-73.1,14.3,-72.8,0.1C-72.6,-14,-72.6,-28,-66.5,-38.2C-60.3,-48.5,-47.9,-55.1,-35.8,-63.4C-23.7,-71.8,-11.9,-82,0.7,-83.1C13.2,-84.3,26.4,-76.4,36.1,-66.7Z" transform="translate(100 100)" />
</svg>
